<?xml version="1.0" encoding="UTF-8"?>
<svg version="1.1" xmlns="http://www.w3.org/2000/svg" width="890" height="964">
<path d="M0 0 C0.70520782 0.00054382 1.41041565 0.00108765 2.13699341 0.00164795 C13.65826913 0.04241391 24.44595367 0.97892404 35.5 4.375 C36.2213916 4.58930664 36.9427832 4.80361328 37.68603516 5.02441406 C57.08309334 10.91686552 72.81811817 21.73762242 89.34277344 33.19091797 C94.10675564 36.48650912 98.89764373 39.74219017 103.6875 43 C105.48977623 44.22888382 107.29186005 45.45804986 109.09375 46.6875 C112.75985434 49.18832589 116.42654325 51.68829095 120.09375 54.1875 C129.5097551 60.60485575 138.92113823 67.02882819 148.32373047 73.46582031 C157.10828798 79.47832937 165.90510636 85.47283557 174.70166016 91.46777344 C179.30155351 94.60286041 183.90074489 97.73897681 188.5 100.875 C190.33332989 102.12500505 192.16666322 103.37500505 194 104.625 C212.33333333 117.125 230.66666667 129.625 249 142.125 C249.9077417 142.74391113 250.8154834 143.36282227 251.75073242 144.00048828 C253.58163813 145.24884047 255.41253008 146.49721282 257.2434082 147.74560547 C261.86377097 150.89598357 266.48438199 154.04599645 271.10546875 157.1953125 C280.51747497 163.61019942 289.92501211 170.03148024 299.32373047 176.46582031 C308.10828798 182.47832937 316.90510636 188.47283557 325.70166016 194.46777344 C331.21590733 198.22604415 336.72920414 201.98570889 342.24267578 205.74511719 C347.79639252 209.53187692 353.3505719 213.31795647 358.90527344 217.10327148 C360.74875765 218.36003077 362.59186155 219.61734812 364.43457031 220.87524414 C368.86799125 223.90161547 373.30546637 226.92152092 377.75390625 229.92578125 C385.91837176 235.45106873 394.01005968 240.94356646 401.5 247.375 C402.31339844 248.055625 403.12679687 248.73625 403.96484375 249.4375 C419.20553237 262.58817123 434.27430357 281.96513894 437.5 302.375 C438.11217531 313.99455837 438.40314766 325.28796191 430.89453125 334.90625 C426.79549335 339.22344397 422.58311767 341.30459201 416.68923944 341.50380117 C415.04505469 341.51074001 413.40084115 341.51208285 411.75664425 341.50922108 C410.84783364 341.51157331 409.93902303 341.51392554 409.0026727 341.51634905 C405.92909239 341.52305511 402.85555419 341.52258034 399.78196716 341.52217102 C397.56736167 341.52546865 395.35275678 341.529194 393.13815266 341.5333125 C387.03018924 341.54335219 380.92223564 341.54705246 374.81426513 341.54970181 C368.91030809 341.55319921 363.0063586 341.56134597 357.10240608 341.56924575 C341.27958086 341.5901007 325.45675377 341.60056185 309.63391801 341.60937535 C302.14952348 341.61358062 294.66512975 341.61880279 287.18073589 341.62405988 C261.56457884 341.64195155 235.94842155 341.65694764 210.33225918 341.66438007 C208.72371992 341.66485483 207.11518065 341.66533072 205.50664139 341.66580774 C204.70894337 341.66604411 203.91124534 341.66628049 203.08937465 341.66652403 C199.04778297 341.66772524 195.00619129 341.66894068 190.96459961 341.67016602 C189.76149593 341.67052624 189.76149593 341.67052624 188.53408713 341.67089374 C162.53003875 341.67878638 136.52603599 341.70221673 110.52200754 341.73472196 C83.03420465 341.76901923 55.54642846 341.78873115 28.05860382 341.79202431 C25.04102805 341.79244186 22.0234523 341.79292142 19.00587654 341.79344749 C18.26285531 341.79357069 17.51983409 341.79369388 16.75429706 341.7938208 C4.79596937 341.79615304 -7.16230537 341.81181441 -19.12061418 341.83228934 C-31.14138386 341.85254463 -43.16208992 341.85802607 -55.18287349 341.84851871 C-61.69543026 341.84396524 -68.20781503 341.84592125 -74.72034836 341.86528015 C-80.68229618 341.88284954 -86.64394575 341.88196449 -92.60589647 341.86638286 C-94.76277082 341.86399733 -96.91966549 341.86837904 -99.07650871 341.88021151 C-102.00995317 341.8953076 -104.9423377 341.88567333 -107.87575626 341.86998463 C-108.71176643 341.88020683 -109.5477766 341.89042904 -110.40912041 341.90096101 C-119.5481078 341.79439597 -127.1437017 338.47663658 -133.74609375 332.234375 C-140.93907565 324.60885298 -142.79352044 317.70658172 -142.8347168 307.34368896 C-142.84630357 306.33698064 -142.85789034 305.33027232 -142.86982822 304.29305768 C-142.9058873 300.92162716 -142.92767234 297.55026323 -142.94921875 294.17871094 C-142.97157539 291.76057838 -142.99460223 289.34245194 -143.01824951 286.92433167 C-143.09127812 278.98609774 -143.14192793 271.0478013 -143.1875 263.109375 C-143.1914498 262.43381691 -143.1953996 261.75825882 -143.19946909 261.06222928 C-143.2778121 247.63686151 -143.34515163 234.21145549 -143.38963318 220.78593063 C-143.39957089 217.83791804 -143.4096597 214.88990602 -143.41992188 211.94189453 C-143.42246322 211.2092288 -143.42500456 210.47656306 -143.42762291 209.72169533 C-143.47034559 197.85250186 -143.56834903 185.98441555 -143.68841016 174.11577913 C-143.81077773 161.91819872 -143.880025 149.7211892 -143.8985796 137.52300286 C-143.91038494 130.67860587 -143.94571689 123.83608717 -144.04135132 116.99230194 C-144.13124809 110.55346 -144.14966214 104.11689731 -144.1200943 97.67747307 C-144.12075156 95.31752457 -144.14530483 92.95744046 -144.19579315 90.598032 C-144.54752033 73.24215395 -144.54752033 73.24215395 -141.13701248 68.4664011 C-137.41441428 64.80524955 -133.16352389 62.63121061 -128.5 60.375 C-126.64776646 59.17450314 -124.81028522 57.95036549 -123 56.6875 C-122.02804687 56.04554687 -121.05609375 55.40359375 -120.0546875 54.7421875 C-115.38106198 51.64387948 -110.75616077 48.47375136 -106.125 45.3125 C-105.18599854 44.6721582 -104.24699707 44.03181641 -103.27954102 43.37207031 C-98.39560528 40.03999702 -93.51669885 36.70082086 -88.64453125 33.3515625 C-83.27999464 29.66737335 -77.90057458 26.00616839 -72.5 22.375 C-71.86271973 21.94574219 -71.22543945 21.51648438 -70.56884766 21.07421875 C-57.09187696 12.09214381 -42.34111548 5.73271808 -26.5 2.375 C-25.7270459 2.19984863 -24.9540918 2.02469727 -24.15771484 1.84423828 C-16.12389016 0.17245111 -8.18354314 -0.02377785 0 0 Z " fill="#041838" transform="translate(444.5,-0.375)"/>
<path d="M0 0 C2.07085651 0.00113018 4.14171461 0.0004913 6.21257019 -0.00177002 C11.79854181 -0.00291145 17.38416555 0.02050508 22.97005677 0.04852581 C28.82097725 0.07363507 34.67190687 0.07588895 40.52287292 0.08062744 C51.58646457 0.0930293 62.64989695 0.12581307 73.71341866 0.1660254 C86.3156344 0.2108301 98.91785798 0.232752 111.52013361 0.25280714 C137.42911922 0.29454823 163.33796374 0.36484585 189.24682617 0.45410156 C189.33846057 57.18620102 189.40890493 113.91829309 189.45108749 170.65045206 C189.45607647 177.35420776 189.46126273 184.05796329 189.46655273 190.76171875 C189.46707577 191.4287931 189.46759881 192.09586744 189.46813769 192.78315616 C189.48515746 214.37219371 189.51518347 235.96118915 189.55201505 257.55020123 C189.59089575 280.38198643 189.61482728 303.21374999 189.62318015 326.04556775 C189.62865778 339.71127448 189.64593376 353.37686025 189.67849204 367.04252973 C189.69970029 376.4244133 189.70601196 385.8062347 189.70083168 395.18814048 C189.69827972 400.59411237 189.7020822 405.99987347 189.72364807 411.4058075 C189.74329996 416.3685657 189.74397698 421.33097398 189.73042175 426.29374924 C189.72874968 428.07606541 189.73366475 429.8584046 189.7463589 431.64067635 C189.85238173 447.46434352 187.88818999 463.37309735 182.05932617 478.20410156 C181.76453369 478.97447754 181.46974121 479.74485352 181.16601562 480.53857422 C175.88052811 493.86386183 168.38666335 505.4747092 159.24682617 516.45410156 C158.50561523 517.34871094 157.7644043 518.24332031 157.00073242 519.16503906 C137.65796096 541.57644984 107.75937531 557.46746978 78.24682617 560.45410156 C69.10064133 560.94107046 59.93338449 560.81575192 50.77759933 560.75828338 C47.23293576 560.73929563 43.68826128 560.737749 40.14355469 560.73420715 C33.45748089 560.72495062 26.77155748 560.7004253 20.08554935 560.67015868 C12.46261193 560.63641328 4.83966664 560.6200785 -2.7833271 560.60507238 C-18.44002921 560.57386853 -34.09658199 560.52123516 -49.75317383 560.45410156 C-49.80453015 509.87601398 -49.85229184 459.29792456 -49.88020325 408.71981812 C-49.88061742 407.97121831 -49.88103159 407.22261851 -49.88145831 406.45133387 C-49.89043708 390.18215192 -49.89874762 373.9129697 -49.90636982 357.64378706 C-49.91011182 349.66535668 -49.91400148 341.68692637 -49.91796875 333.70849609 C-49.91836103 332.91454737 -49.9187533 332.12059865 -49.91915747 331.30259087 C-49.93194097 305.56951548 -49.9544745 279.83645984 -49.98206549 254.10339642 C-50.01036786 227.65881428 -50.02883123 201.21424308 -50.0349188 174.76964606 C-50.03578326 171.03433122 -50.03676017 167.29901642 -50.03780556 163.56370163 C-50.03810896 162.46095889 -50.03810896 162.46095889 -50.03841849 161.33593852 C-50.04196332 149.50298149 -50.05587663 137.67005829 -50.07366993 125.83711505 C-50.09133786 113.94033188 -50.09807621 102.04358224 -50.09367796 90.14678641 C-50.09175358 83.70111048 -50.09473546 77.25553383 -50.11079025 70.80987549 C-50.12538113 64.90891754 -50.12613129 59.0081257 -50.11587051 53.10716014 C-50.11460219 50.9724035 -50.11841448 48.83763653 -50.12782338 46.70290025 C-50.13987646 43.79940476 -50.13336483 40.89650754 -50.12231731 37.99302101 C-50.13019836 37.16577937 -50.1380794 36.33853773 -50.14619926 35.48622817 C-50.06214692 25.69884534 -47.3495792 17.72424905 -40.75317383 10.45410156 C-40.26204102 9.89722656 -39.7709082 9.34035156 -39.26489258 8.76660156 C-29.00690694 -1.4150219 -13.2956085 -0.10223852 0 0 Z " fill="#031838" transform="translate(700.753173828125,403.5458984375)"/>
<path d="M0 0 C53.53352687 -0.06847285 107.06705773 -0.1321554 160.60061646 -0.16937256 C161.39291812 -0.16992479 162.18521979 -0.17047702 163.00153059 -0.17104598 C180.22034148 -0.18301758 197.43915283 -0.19409831 214.65796488 -0.20426132 C223.10205481 -0.20925067 231.54614462 -0.21443688 239.99023438 -0.21972656 C240.83052322 -0.2202496 241.67081207 -0.22077263 242.53656421 -0.22131152 C269.77320289 -0.23835719 297.00980838 -0.26840264 324.24642695 -0.30518888 C352.23537396 -0.34292258 380.2243026 -0.36754255 408.21327462 -0.37565996 C412.1664357 -0.37681258 416.11959672 -0.37811513 420.07275772 -0.37950897 C421.23981696 -0.37991351 421.23981696 -0.37991351 422.43045315 -0.38032622 C434.9552168 -0.38505326 447.47992367 -0.40360595 460.00466416 -0.42732814 C472.59598069 -0.45088139 485.1872409 -0.45987084 497.77857868 -0.45400551 C504.60097611 -0.45123084 511.42322138 -0.45489152 518.2455883 -0.4768219 C524.49076084 -0.49626871 530.73565432 -0.49728179 536.98083963 -0.48359558 C539.24076594 -0.48190372 541.50070958 -0.48699344 543.76060174 -0.49953273 C546.83305585 -0.51559008 549.90450324 -0.5069305 552.97694206 -0.49219131 C554.29240658 -0.5079534 554.29240658 -0.5079534 555.63444614 -0.5240339 C564.90732552 -0.42354344 572.53393176 2.79458094 579.24609375 9.140625 C585.37624804 15.63940772 588.24114108 21.61730885 588.26742554 30.73518372 C588.27195665 31.38732855 588.27648776 32.03947338 588.28115618 32.71138018 C588.29375297 34.88293681 588.29218292 37.05424111 588.29052734 39.22583008 C588.29651557 40.78845032 588.3033218 42.35106761 588.31088257 43.91368103 C588.32852026 48.14934802 588.33323702 52.38493415 588.33451414 56.62063432 C588.33593761 59.269744 588.34021094 61.91883325 588.34550858 64.56793785 C588.36400179 73.81784745 588.37218012 83.06769948 588.37060547 92.31762695 C588.36940441 100.92685012 588.39050158 109.53582245 588.4220928 118.14498216 C588.44828329 125.54731763 588.4589716 132.94957131 588.45769465 140.35195273 C588.45718581 144.76821606 588.46282554 149.18425641 588.48405075 153.6004734 C588.5034799 157.75630863 588.50352593 161.91170923 588.48901749 166.0675602 C588.48693404 167.58765806 588.49160256 169.10778347 588.5037384 170.62783432 C588.56493686 178.82809534 588.32467012 185.80049595 584 193 C583.29617188 194.21429687 583.29617188 194.21429687 582.578125 195.453125 C577.64624313 202.12567106 571.97003878 205.73396058 564 208 C561.37603365 208.18298421 558.86122704 208.27253933 556.24011707 208.25726891 C555.09102106 208.26252802 555.09102106 208.26252802 553.91871098 208.26789337 C551.34863306 208.2772061 548.7787818 208.27228434 546.20869446 208.26742554 C544.34852084 208.27116191 542.4883488 208.27576338 540.62817925 208.28115618 C535.51348611 208.29340421 530.39885829 208.29312356 525.28415382 208.29076743 C519.76849664 208.29035969 514.25286053 208.30139465 508.73721313 208.31088257 C497.92715921 208.32750592 487.1171271 208.33299281 476.30706147 208.33410732 C467.51541095 208.33505763 458.72376762 208.3391671 449.93211937 208.34550858 C429.05476222 208.36026048 408.17740895 208.37255779 387.30004597 208.37151146 C386.63228552 208.3714803 385.96452507 208.37144914 385.27652945 208.37141704 C381.89218887 208.37125083 378.50784829 208.37105275 375.12350772 208.37084763 C374.45139284 208.37080774 373.77927795 208.37076785 373.08679596 208.37072675 C371.72761217 208.37064587 370.36842838 208.37056228 369.00924459 208.37047596 C347.88821555 208.36925194 326.76725086 208.3842355 305.64624023 208.41162109 C281.90268578 208.44239457 258.15916733 208.45952491 234.41558808 208.45769465 C221.85010652 208.45703165 209.28469745 208.46248367 196.71923256 208.48405075 C186.01430007 208.50230661 175.30947291 208.50657415 164.60453156 208.4930319 C159.14801934 208.48652309 153.6917089 208.48630909 148.23521614 208.5037384 C143.22771089 208.51956799 138.22056574 208.51650543 133.21306875 208.49917014 C131.41345866 208.49612174 129.61382103 208.49964984 127.81424347 208.51089029 C112.20852857 208.60181179 96.94710612 206.49378567 82.3125 200.8125 C81.5376123 200.51770752 80.76272461 200.22291504 79.96435547 199.91918945 C66.59990751 194.64849144 55.02046838 187.13167016 44 178 C43.17886719 177.33226562 42.35773437 176.66453125 41.51171875 175.9765625 C35.55196677 170.93290365 30.75832677 165.16883078 26 159 C25.319375 158.14664063 24.63875 157.29328125 23.9375 156.4140625 C5.27033852 132.13216886 -0.70709235 103.0296336 -0.390625 73.046875 C-0.38313974 70.92312154 -0.37745767 68.79936106 -0.37347412 66.67559814 C-0.35839735 61.15844744 -0.3192764 55.64173614 -0.2746582 50.12475586 C-0.2333119 44.46604349 -0.21538013 38.80725825 -0.1953125 33.1484375 C-0.15275984 22.09876811 -0.08473394 11.04942097 0 0 Z " fill="#041838" transform="translate(0,756)"/>
<path d="M0 0 C0.05135527 52.38948911 0.0991171 104.77898018 0.12702942 157.16848755 C0.12744359 157.94387236 0.12785776 158.71925718 0.12828448 159.5181385 C0.13726321 176.36935124 0.14557376 193.22056424 0.15319599 210.07177763 C0.156938 218.33561223 0.16082766 226.59944676 0.16479492 234.86328125 C0.1651872 235.68563198 0.16557948 236.50798272 0.16598364 237.35525317 C0.17876761 264.00986258 0.20130149 290.66445291 0.22889166 317.31905076 C0.25719272 344.71017971 0.2756571 372.1012981 0.28174497 399.49244141 C0.28260943 403.3612749 0.28358634 407.23010836 0.28463173 411.0989418 C0.28493513 412.24110433 0.28493513 412.24110433 0.28524467 413.40634085 C0.28878977 425.66330123 0.30270384 437.92022897 0.3204961 450.17717604 C0.33816216 462.4996378 0.34490285 474.8220672 0.34050413 487.14454119 C0.33842331 493.82108766 0.3415646 500.49755827 0.35761642 507.17409325 C0.37220363 513.28599759 0.37295985 519.39774154 0.36269668 525.50965323 C0.36142801 527.72112526 0.3652434 529.93260725 0.37464955 532.14405964 C0.38669595 535.15101894 0.38019498 538.15739995 0.36914349 541.16435051 C0.37702453 542.02207471 0.38490557 542.87979891 0.39302543 543.76351476 C0.30236964 554.68604789 -3.04716001 562.96505187 -10.69921875 570.72265625 C-18.00776529 577.40710218 -25.7712805 579.15260304 -35.51933289 579.14044189 C-36.26792299 579.14341302 -37.01651309 579.14638414 -37.78778774 579.1494453 C-40.2917234 579.15810442 -42.7956111 579.15963818 -45.29956055 579.16113281 C-47.09685874 579.165763 -48.89415595 579.17078793 -50.69145203 579.17617798 C-55.57183666 579.18928553 -60.45220755 579.19574384 -65.33260703 579.20018864 C-68.38390331 579.20312229 -71.43519585 579.20722768 -74.48649025 579.21169281 C-84.03967607 579.22536402 -93.59285333 579.23503226 -103.14604825 579.2388947 C-114.16174091 579.24337328 -125.17730936 579.26091352 -136.19296426 579.2898953 C-144.7154464 579.31153672 -153.23789366 579.32160031 -161.76040298 579.32293582 C-166.84680924 579.32398217 -171.93309868 579.32985375 -177.01947594 579.34775543 C-181.80722069 579.36427843 -186.59476132 579.36637112 -191.38252449 579.35761642 C-193.1344088 579.35684829 -194.88630428 579.36115917 -196.63816071 579.37107468 C-208.78939847 579.43578695 -219.26386011 579.14215782 -228.95703125 571.02734375 C-234.48335565 565.5432857 -238.56442092 558.98567498 -239.25299966 551.10414445 C-239.25511294 549.57912181 -239.25511294 549.57912181 -239.25726891 548.02329063 C-239.2637178 546.84280722 -239.27016669 545.66232381 -239.276811 544.44606817 C-239.2737138 543.15815614 -239.2706166 541.87024411 -239.26742554 540.54330444 C-239.2711637 539.15407013 -239.27576589 537.76483792 -239.28115618 536.37560904 C-239.29338269 532.56261971 -239.29312609 528.74971815 -239.29076743 524.9367137 C-239.29035913 520.82186502 -239.30140017 516.70704443 -239.31088257 512.59220886 C-239.32749545 504.52906414 -239.33299239 496.46594867 -239.33410732 488.40278827 C-239.33505838 481.84179018 -239.33917159 475.28080171 -239.34550858 468.71980667 C-239.36312765 450.0971418 -239.37234729 431.47449998 -239.37084763 412.85182671 C-239.37076772 411.8478821 -239.3706878 410.84393749 -239.37060547 409.80957031 C-239.37052371 408.80439112 -239.37044195 407.79921193 -239.37035771 406.76357277 C-239.36954631 390.50441175 -239.38864538 374.24534371 -239.4168822 357.98620956 C-239.4456808 341.270773 -239.45941843 324.55538166 -239.45769465 307.83991969 C-239.45703279 298.4641157 -239.46243437 289.08840896 -239.48405075 279.71262741 C-239.50235532 271.72217157 -239.50653497 263.73185698 -239.4930319 255.74138914 C-239.48654652 251.67203541 -239.48622193 247.60295189 -239.5037384 243.53362465 C-239.58432781 223.57670518 -239.22503905 204.11399038 -231.8125 185.25 C-231.37139893 184.09552368 -231.37139893 184.09552368 -230.92138672 182.91772461 C-225.86032411 170.14425393 -218.75365941 158.57792769 -210 148 C-209.36118896 147.2255957 -209.36118896 147.2255957 -208.70947266 146.43554688 C-198.44282824 134.17664465 -185.79263463 124.94495118 -172.44921875 116.26171875 C-167.79030922 113.22923354 -163.21425582 110.07389583 -158.625 106.9375 C-156.70052295 105.62369481 -154.77604375 104.30989278 -152.8515625 102.99609375 C-151.8812207 102.33335449 -150.91087891 101.67061523 -149.91113281 100.98779297 C-145.27580505 97.82267735 -140.63780723 94.6614808 -136 91.5 C-134.17056261 90.25261929 -132.34113555 89.00522342 -130.51171875 87.7578125 C-126.80627881 85.23134626 -123.10051692 82.70535316 -119.39453125 80.1796875 C-110.75820486 74.29347622 -102.12413521 68.4040623 -93.5 62.5 C-83.94149987 55.95627371 -74.37059362 49.43081159 -64.79833984 42.90722656 C-59.28627472 39.15044304 -53.77511203 35.3923357 -48.26391602 31.63427734 C-43.60627339 28.45836673 -38.94812957 25.28319566 -34.2890625 22.109375 C-33.34901367 21.4687915 -32.40896484 20.82820801 -31.44042969 20.16821289 C-29.58467266 18.90384565 -27.72856109 17.6399986 -25.87207031 16.37670898 C-21.61176981 13.4750843 -17.36065917 10.56203543 -13.1328125 7.61328125 C-12.38821777 7.09540039 -11.64362305 6.57751953 -10.87646484 6.04394531 C-9.496373 5.08247604 -8.11892426 4.11719747 -6.74462891 3.14746094 C-2.22212249 0 -2.22212249 0 0 0 Z " fill="#041838" transform="translate(239,114)"/>
<path d="M0 0 C1.40465026 -0.00445668 1.40465026 -0.00445668 2.8376773 -0.0090034 C5.97730926 -0.01767889 9.11690303 -0.01919768 12.25654602 -0.02069092 C14.50704022 -0.02531992 16.75753363 -0.03034469 19.00802612 -0.03573608 C25.12390862 -0.04885453 31.23978014 -0.05530402 37.35567451 -0.05974674 C41.1775151 -0.06267848 44.9993527 -0.06678349 48.82119179 -0.07125092 C59.41135756 -0.08335835 70.00152071 -0.09374077 80.59169292 -0.09712601 C81.26905229 -0.09734557 81.94641165 -0.09756514 82.64429705 -0.09779136 C83.66271147 -0.09811878 83.66271147 -0.09811878 84.70169991 -0.09845281 C86.07740382 -0.09889627 87.45310774 -0.09934283 88.82881165 -0.09979248 C89.51120243 -0.10001391 90.19359322 -0.10023534 90.89666251 -0.10046348 C101.94737973 -0.10440931 112.99803092 -0.12185781 124.04872265 -0.145152 C135.40555885 -0.16889745 146.76235082 -0.18107162 158.11921626 -0.18249393 C164.49111382 -0.18354144 170.86291824 -0.18943797 177.23479271 -0.20731354 C183.23070705 -0.22380715 189.22645835 -0.22594334 195.22238731 -0.21717453 C197.41933631 -0.21640484 199.61629413 -0.22073782 201.81322098 -0.23063278 C204.82025358 -0.24337886 207.82671103 -0.23746081 210.83374023 -0.22705078 C211.69611933 -0.23510719 212.55849842 -0.24316359 213.44701022 -0.25146413 C223.37055954 -0.17152035 232.13011517 2.68705717 239.73432922 9.14044189 C246.9790484 16.78061518 249.19066567 24.82944427 249.12200928 35.10855103 C249.13008758 36.57217416 249.13008758 36.57217416 249.13832909 38.06536543 C249.15258484 41.32017586 249.14551068 44.57457822 249.13838196 47.82940674 C249.14408678 50.16901475 249.15105147 52.50861998 249.15917969 54.84822083 C249.17711429 61.19329767 249.17594201 67.53823624 249.1702373 73.88333082 C249.16675434 79.85507301 249.17471055 85.82679817 249.18159796 91.79853506 C249.19531209 104.34928789 249.18989313 116.8999783 249.17841274 129.45072968 C249.16848307 140.91837873 249.18141829 152.38586636 249.20534693 163.85349052 C249.22976362 175.64435824 249.23933941 187.43515086 249.23269421 199.22604334 C249.22920748 205.83934963 249.23173468 212.45254773 249.24894524 219.06583786 C249.26442613 225.28592093 249.26044567 231.50569617 249.24164009 237.72576714 C249.23795736 240.00495406 249.2410534 242.28416385 249.25152588 244.5633297 C249.26475875 247.68202784 249.25316714 250.79971036 249.23553467 253.91836548 C249.24513967 254.81371675 249.25474468 255.70906802 249.26464075 256.63155115 C249.1520638 266.35308025 245.67015783 274.13636589 239.01948547 281.15997314 C231.00432977 288.10644142 222.58333192 289.29090288 212.39273071 289.28088379 C211.4481301 289.28385491 210.50352949 289.28682603 209.53030461 289.28988719 C206.36303366 289.29856324 203.19580056 289.30008152 200.02851868 289.30157471 C197.75832031 289.30620367 195.48812271 289.31122843 193.21792603 289.31661987 C187.04832623 289.32973869 180.87873732 289.33618788 174.70912576 289.34063053 C170.85378323 289.3435622 166.99844368 289.3476672 163.14310265 289.3521347 C152.46029022 289.3642422 141.77748142 289.3746246 131.09466267 289.3780098 C130.41136808 289.37822936 129.7280735 289.37844893 129.02407302 289.37867515 C128.33918018 289.37889343 127.65428734 289.3791117 126.94864017 289.3793366 C125.56087832 289.37978006 124.17311646 289.38022662 122.78535461 289.38067627 C121.75279659 289.38100841 121.75279659 289.38100841 120.69937881 289.38134727 C109.55166396 289.38529314 98.40401456 289.40274177 87.25632498 289.42603579 C75.80004608 289.44978059 64.34381469 289.46195537 52.88750809 289.46337771 C46.45971952 289.46442527 40.03202328 289.47032266 33.60425758 289.48819733 C27.55581402 289.50468993 21.50753208 289.50682761 15.45907402 289.49805832 C13.24277437 289.49728858 11.02646599 289.50162231 8.81018829 289.51151657 C5.77688295 289.52426094 2.74414791 289.5183455 -0.28915405 289.50793457 C-1.15931504 289.51599097 -2.02947604 289.52404738 -2.92600554 289.53234792 C-13.33702108 289.44918541 -21.82999807 286.53346256 -29.26567078 279.14044189 C-35.41582772 271.44945334 -37.56614829 265.23230796 -37.53309631 255.49513245 C-37.53762743 254.51786341 -37.54215854 253.54059438 -37.54682696 252.53371114 C-37.55949693 249.25584494 -37.55784889 245.97814434 -37.55619812 242.70025635 C-37.56218183 240.35123989 -37.56898701 238.0022254 -37.57655334 235.6532135 C-37.59423866 229.26873374 -37.59890986 222.88430757 -37.60018492 216.49980569 C-37.60184425 211.84123733 -37.60764259 207.18268092 -37.61385787 202.52411678 C-37.63046803 189.99251556 -37.63794251 177.46094275 -37.6365184 164.92933092 C-37.63643849 164.21790623 -37.63635858 163.50648155 -37.63627625 162.77349854 C-37.63619448 162.0612016 -37.63611272 161.34890467 -37.63602848 160.61502298 C-37.63521613 149.0792906 -37.65434118 137.54368897 -37.68255298 126.00799439 C-37.71131371 114.15394842 -37.72509145 102.29996614 -37.72336543 90.44588441 C-37.72270251 83.79451935 -37.72854236 77.1432747 -37.74972153 70.49193764 C-37.76910535 64.23333163 -37.76922704 57.97501452 -37.75468826 51.71639824 C-37.75259913 49.42269595 -37.75730722 47.12897558 -37.76940918 44.83530426 C-37.78489266 41.69675506 -37.77553223 38.55919807 -37.76014709 35.42066956 C-37.77043422 34.51938098 -37.78072135 33.6180924 -37.7913202 32.68949205 C-37.69337683 23.60774307 -34.71334496 15.63655309 -28.46098328 8.96466064 C-19.82863087 1.79151371 -10.81430318 -0.01072702 0 0 Z " fill="#041838" transform="translate(339.2656707763672,403.85955810546875)"/>
</svg>
